{"title":"Heaven Is For Real 2014 BRRip XviD titler","uid":10477540,"size":977438278,"categoryP":"video","categoryS":"movies","magnet":"?xt=urn:btih:fbba9af60108bc87cee53d2464a7c1a0311b2f9a&amp;dn=Heaven+Is+For+Real+2014+BRRip+XviD+titler&amp;tr=udp%3A%2F%2Ftracker.openbittorrent.com%3A80&amp;tr=udp%3A%2F%2Fopen.demonii.com%3A1337&amp;tr=udp%3A%2F%2Ftracker.coppersurfer.tk%3A6969&amp;tr=udp%3A%2F%2Fexodus.desync.com%3A6969","seeders":4,"leechers":0,"uploader":"movieZ.freak","files":4,"time":1404364372,"description":"SOURCE: Heaven Is For Real 2014 720p BluRay x264 - SPARKS\n\n\n\n &lt;a href=&quot;\nhttp://www.imdb.com/title/tt1929263/&quot; rel=&quot;nofollow&quot; target=&quot;_NEW&quot;&gt;\nhttp://www.imdb.com/title/tt1929263/&lt;/a&gt;\n\n\n\n &lt;a href=&quot;\nhttp://www.rottentomatoes.com/m/heaven_is_for_real/&quot; rel=&quot;nofollow&quot; target=&quot;_NEW&quot;&gt;\nhttp://www.rottentomatoes.com/m/heaven_is_for_real/&lt;/a&gt;\n\n\n\n &lt;a href=&quot;\nhttp://en.wikipedia.org/wiki/Heaven_Is_for_Real_%28film%29&quot; rel=&quot;nofollow&quot; target=&quot;_NEW&quot;&gt;\nhttp://en.wikipedia.org/wiki/Heaven_Is_for_Real_%28film%29&lt;/a&gt;\n\n\n\n\n\n- SAMPLE: Yes\n\n\n- SUBTITLE: English\n\n\n- LANGUAGE / AUDIO: English\n\n\n\n\n\nSCREENSHOTS:\n-------------------    &lt;a href=&quot;\nhttp://someimage.com/gBe0&quot; rel=&quot;nofollow&quot; target=&quot;_NEW&quot;&gt;\nhttp://someimage.com/gBe0&lt;/a&gt;\n\n\n\n\nDIRECTOR: Randall Wallace\n\n\n\n\nCAST: Greg Kinnear, Kelly Reilly, Connor Corum, Thomas Haden Church, Margo Martindale, Lane Styles, Rob Moran, Danso Gordon,...\n\n\nPLOT:\n-----------\nBased on the #1 New York Times best-selling book of the same name, HEAVEN IS FOR REAL brings to the screen the true story of a small-town father who must find the courage and conviction to share his son's extraordinary, life-changing experience with the world. The film stars Academy Award (R) nominee and Emmy (R) award winning actor Greg Kinnear as Todd Burpo and co-stars Kelly Reilly as Sonja Burpo, the real-life couple whose son Colton (newcomer Connor Corum) claims to have visited Heaven during a near death experience. Colton recounts the details of his amazing journey with childlike innocence and speaks matter-of-factly about things that happened before his birth ... things he couldn't possibly know. Todd and his family are then challenged to examine the meaning from this remarkable event.\n\n\n************************************\n\n- Duration: 1h 39mn\n\n- Bit rate: 1145 Kbps\n\n- Res: 720 x 302\n\n- AR: 2.40:1\n\n- FPS: 23.976 fps\n\n- Audio: AC3, 2 channels, 128 Kbps\n\n************************************\n\n\nGeneral\n--------------\nFormat : AVI\nFormat/Info : Audio Video Interleave\nFile size : 912 MiB\nDuration : 1h 39mn\nOverall bit rate : 1282 Kbps\nWriting library : VirtualDub build 35491\n\n\nVideo\n----------\nFormat : MPEG-4 Visual\nFormat profile : Advanced Simple@L5\nFormat settings, BVOP : 2\nFormat settings, QPel : No\nFormat settings, GMC : No warppoints\nFormat settings, Matrix : Default (H.263)\nCodec ID : XVID\nCodec ID/Hint : XviD\nDuration : 1h 39mn\nBit rate : 1145 Kbps\nWidth : 720 pixels\nHeight : 302 pixels\nDisplay aspect ratio : 2.40:1\nFrame rate : 23.976 fps\nColor space : YUV\nChroma subsampling : 4:2:0\nBit depth : 8 bits\nScan type : Progressive\nCompression mode : Lossy\nBits/(Pixel*Frame) : 0.220\nStream size : 815 MiB (89%)\nWriting library : XviD 65\n\n\nAudio\n------------\nFormat : AC-3\nFormat/Info : Audio Coding 3\nMode extension : CM (complete main)\nFormat settings, Endianness : Big\nCodec ID : 2000\nDuration : 1h 39mn\nBit rate mode : Constant\nBit rate : 128 Kbps\nChannel(s) : 2 channels\nChannel positions : Front: L R\nSampling rate : 48.0 KHz\nBit depth : 16 bits\nCompression mode : Lossy\nStream size : 91.1 MiB (10%)\nAlignment : Aligned on interleaves\nInterleave, duration : 42 ms (1.00 video frame)\nInterleave, preload duration : 512 ms","torrent":{"xt":"urn:btih:fbba9af60108bc87cee53d2464a7c1a0311b2f9a","amp;dn":"Heaven+Is+For+Real+2014+BRRip+XviD+titler","amp;tr":["udp%3A%2F%2Ftracker.openbittorrent.com%3A80","udp%3A%2F%2Fopen.demonii.com%3A1337","udp%3A%2F%2Ftracker.coppersurfer.tk%3A6969","udp%3A%2F%2Fexodus.desync.com%3A6969"],"infoHash":"fbba9af60108bc87cee53d2464a7c1a0311b2f9a","infoHashBuffer":{"type":"Buffer","data":[251,186,154,246,1,8,188,135,206,229,61,36,100,167,193,160,49,27,47,154]},"announce":[],"urlList":[]}}